# xmcd CD database file
#
# Track frame offsets:
#	150
#	16952
#	46717
#	58340
#	75477
#	93505
#	113622
#	131187
#	150570
#	175675
#	194245
#	214347
#	232857
#	248505
#	266337
#	277637
#
# Disc length: 4032 seconds
#
# Revision: 0
# Processed by: cddbd v1.5.2PL0 Copyright (c) Steve Scherf et al.
# Submitted via: CDex 1.51
#
DISCID=cc0fbe10
DTITLE=Hasse Kahn - Royal Export
DYEAR=1985
DGENRE=Jazz
TTITLE0=Royal Export
TTITLE1=New Orleans
TTITLE2=Is It True What The Say About Dixie
TTITLE3=Yoske, Yoske
TTITLE4=You Took Advantage of Me
TTITLE5=It Don't Mean a Thing
TTITLE6=Jespers Hus
TTITLE7=Black and Brown Beer
TTITLE8=Taking a Walk
TTITLE9=That's a Plenty
TTITLE10=Pardon Me, Pretty Baby
TTITLE11=Indian Summer
TTITLE12=The Music Goes 'Round and Around
TTITLE13=In a Sentimental Mood
TTITLE14=At the Jazz Band Ball
TTITLE15=Exactly Like You
EXTD=YEAR: 1985
EXTT0=
EXTT1=
EXTT2=
EXTT3=
EXTT4=
EXTT5=
EXTT6=
EXTT7=
EXTT8=
EXTT9=
EXTT10=
EXTT11=
EXTT12=
EXTT13=
EXTT14=
EXTT15=
PLAYORDER=
